<svg width="75" height="59" viewBox="0 0 75 59" fill="none" xmlns="http://www.w3.org/2000/svg">
<path d="M0 54.0833C0 56.7987 2.20127 59 4.91667 59H70.0833C72.7987 59 75 56.7987 75 54.0833V54.0833C75 51.3679 72.7987 49.1667 70.0833 49.1667H4.91666C2.20126 49.1667 0 51.3679 0 54.0833V54.0833ZM0 29.5C0 32.2154 2.20127 34.4167 4.91667 34.4167H70.0833C72.7987 34.4167 75 32.2154 75 29.5V29.5C75 26.7846 72.7987 24.5833 70.0833 24.5833H4.91666C2.20126 24.5833 0 26.7846 0 29.5V29.5ZM4.91666 0C2.20126 0 0 2.20127 0 4.91667V4.91667C0 7.63207 2.20127 9.83333 4.91667 9.83333H70.0833C72.7987 9.83333 75 7.63207 75 4.91667V4.91667C75 2.20127 72.7987 0 70.0833 0H4.91666Z" fill="#161313"/>
</svg>
